# xmcd
#
# Track frame offsets:
#        150
#        20053
#        32522
#        55300
#        77144
#        98120
#        116030
#        130202
#        144894
#        164523
#        184351
#        202610
#        223230
#        240741
#
# Disc length: 3433 seconds
#
# Revision: 1
# Processed by: cddbd v1.5.2PL0 Copyright (c) Steve Scherf et al.
# Submitted via: ExactAudioCopy v1.0b1
#
DISCID=c50d670e
DTITLE=Chris Smither - Lost and Found
DYEAR=2011
DGENRE=Blues
TTITLE0=Train Home
TTITLE1=Get A Better One
TTITLE2=Hold On II
TTITLE3=Let it Go
TTITLE4=Hey Hey Hey
TTITLE5=Tell Me Why You Love Me
TTITLE6=Time to Spend
TTITLE7=Bittersweet
TTITLE8=Never Needed It More
TTITLE9=Outside In
TTITLE10=Confirmation
TTITLE11=Time To Go Home
TTITLE12=Lola
TTITLE13=So Long
EXTD=
EXTT0=
EXTT1=
EXTT2=
EXTT3=
EXTT4=
EXTT5=
EXTT6=
EXTT7=
EXTT8=
EXTT9=
EXTT10=
EXTT11=
EXTT12=
EXTT13=
PLAYORDER=
